<svg width="373" height="131" viewBox="0 0 373 131" fill="none" xmlns="http://www.w3.org/2000/svg">
<path d="M13.0025 59H2.95135L18.2663 14.6364H30.3537L45.647 59H35.5959L24.4833 24.7741H24.1367L13.0025 59ZM12.3743 41.5621H36.1158V48.8839H12.3743V41.5621ZM61.5252 59.5415C58.998 59.5415 56.709 58.8917 54.6584 57.592C52.6222 56.2778 51.0047 54.3499 49.8061 51.8082C48.6219 49.2521 48.0298 46.1184 48.0298 42.407C48.0298 38.5945 48.6436 35.4246 49.8711 32.8974C51.0986 30.3557 52.7305 28.4567 54.7667 27.2003C56.8174 25.9295 59.063 25.294 61.5036 25.294C63.3665 25.294 64.9189 25.6117 66.1609 26.2472C67.4173 26.8681 68.4281 27.648 69.1935 28.5866C69.9734 29.5109 70.5655 30.4207 70.9698 31.316H71.2514V14.6364H80.4577V59H71.3597V53.6712H70.9698C70.5366 54.5954 69.9228 55.5124 69.1286 56.4222C68.3487 57.3176 67.3306 58.0613 66.0742 58.6534C64.8323 59.2455 63.3159 59.5415 61.5252 59.5415ZM64.4496 52.1982C65.937 52.1982 67.1934 51.7938 68.2188 50.9851C69.2585 50.1619 70.0528 49.0138 70.6016 47.5408C71.1648 46.0678 71.4464 44.3421 71.4464 42.3636C71.4464 40.3852 71.172 38.6667 70.6232 37.2081C70.0745 35.7495 69.2802 34.6231 68.2404 33.8288C67.2006 33.0346 65.937 32.6374 64.4496 32.6374C62.9332 32.6374 61.6552 33.049 60.6154 33.8722C59.5756 34.6953 58.7886 35.8362 58.2543 37.2947C57.7199 38.7533 57.4528 40.4429 57.4528 42.3636C57.4528 44.2988 57.7199 46.0101 58.2543 47.4975C58.803 48.9705 59.5901 50.1258 60.6154 50.9634C61.6552 51.7866 62.9332 52.1982 64.4496 52.1982ZM100.305 59.5415C97.7783 59.5415 95.4893 58.8917 93.4387 57.592C91.4024 56.2778 89.785 54.3499 88.5864 51.8082C87.4022 49.2521 86.8101 46.1184 86.8101 42.407C86.8101 38.5945 87.4239 35.4246 88.6514 32.8974C89.8789 30.3557 91.5107 28.4567 93.547 27.2003C95.5976 25.9295 97.8432 25.294 100.284 25.294C102.147 25.294 103.699 25.6117 104.941 26.2472C106.198 26.8681 107.208 27.648 107.974 28.5866C108.754 29.5109 109.346 30.4207 109.75 31.316H110.032V14.6364H119.238V59H110.14V53.6712H109.75C109.317 54.5954 108.703 55.5124 107.909 56.4222C107.129 57.3176 106.111 58.0613 104.854 58.6534C103.613 59.2455 102.096 59.5415 100.305 59.5415ZM103.23 52.1982C104.717 52.1982 105.974 51.7938 106.999 50.9851C108.039 50.1619 108.833 49.0138 109.382 47.5408C109.945 46.0678 110.227 44.3421 110.227 42.3636C110.227 40.3852 109.952 38.6667 109.403 37.2081C108.855 35.7495 108.06 34.6231 107.021 33.8288C105.981 33.0346 104.717 32.6374 103.23 32.6374C101.714 32.6374 100.435 33.049 99.3957 33.8722C98.3559 34.6953 97.5689 35.8362 97.0345 37.2947C96.5002 38.7533 96.233 40.4429 96.233 42.3636C96.233 44.2988 96.5002 46.0101 97.0345 47.4975C97.5833 48.9705 98.3704 50.1258 99.3957 50.9634C100.435 51.7866 101.714 52.1982 103.23 52.1982ZM155.977 59.6499C152.569 59.6499 149.637 58.9278 147.182 57.4837C144.741 56.0251 142.864 54.0033 141.55 51.4183C140.25 48.8333 139.6 45.8584 139.6 42.4936C139.6 39.0855 140.257 36.0961 141.571 33.5256C142.9 30.9406 144.785 28.926 147.225 27.4819C149.666 26.0233 152.569 25.294 155.933 25.294C158.836 25.294 161.378 25.8211 163.558 26.8754C165.739 27.9296 167.465 29.4098 168.736 31.316C170.006 33.2223 170.707 35.4607 170.837 38.0312H162.129C161.883 36.3705 161.233 35.0347 160.179 34.0238C159.139 32.9985 157.775 32.4858 156.085 32.4858C154.655 32.4858 153.406 32.8757 152.337 33.6555C151.283 34.4209 150.46 35.5401 149.868 37.0131C149.276 38.4862 148.98 40.2696 148.98 42.3636C148.98 44.4865 149.269 46.2917 149.846 47.7791C150.438 49.2666 151.269 50.4002 152.337 51.18C153.406 51.9599 154.655 52.3498 156.085 52.3498C157.139 52.3498 158.085 52.1332 158.923 51.6999C159.775 51.2667 160.475 50.6385 161.024 49.8153C161.587 48.9777 161.955 47.9741 162.129 46.8043H170.837C170.692 49.346 169.999 51.5844 168.757 53.5195C167.53 55.4402 165.833 56.9421 163.667 58.0252C161.5 59.1083 158.937 59.6499 155.977 59.6499ZM191.778 59.6499C188.414 59.6499 185.504 58.935 183.049 57.5053C180.608 56.0612 178.723 54.0539 177.395 51.4833C176.066 48.8983 175.402 45.9018 175.402 42.4936C175.402 39.0566 176.066 36.0528 177.395 33.4822C178.723 30.8973 180.608 28.8899 183.049 27.4602C185.504 26.0161 188.414 25.294 191.778 25.294C195.143 25.294 198.046 26.0161 200.487 27.4602C202.942 28.8899 204.833 30.8973 206.162 33.4822C207.491 36.0528 208.155 39.0566 208.155 42.4936C208.155 45.9018 207.491 48.8983 206.162 51.4833C204.833 54.0539 202.942 56.0612 200.487 57.5053C198.046 58.935 195.143 59.6499 191.778 59.6499ZM191.822 52.5014C193.353 52.5014 194.631 52.0682 195.656 51.2017C196.681 50.3208 197.454 49.1222 197.974 47.6058C198.508 46.0895 198.775 44.3638 198.775 42.4286C198.775 40.4935 198.508 38.7678 197.974 37.2514C197.454 35.7351 196.681 34.5365 195.656 33.6555C194.631 32.7746 193.353 32.3342 191.822 32.3342C190.277 32.3342 188.977 32.7746 187.923 33.6555C186.883 34.5365 186.096 35.7351 185.561 37.2514C185.042 38.7678 184.782 40.4935 184.782 42.4286C184.782 44.3638 185.042 46.0895 185.561 47.6058C186.096 49.1222 186.883 50.3208 187.923 51.2017C188.977 52.0682 190.277 52.5014 191.822 52.5014ZM223.383 39.7642V59H214.155V25.7273H222.95V31.5977H223.34C224.076 29.6625 225.311 28.1317 227.044 27.0053C228.777 25.8645 230.878 25.294 233.348 25.294C235.658 25.294 237.673 25.7995 239.391 26.8104C241.11 27.8213 242.446 29.2654 243.399 31.1428C244.352 33.0057 244.828 35.2296 244.828 37.8146V59H235.6V39.4609C235.615 37.4247 235.095 35.8362 234.041 34.6953C232.987 33.54 231.535 32.9624 229.687 32.9624C228.445 32.9624 227.347 33.2295 226.394 33.7638C225.455 34.2982 224.719 35.078 224.185 36.1033C223.665 37.1142 223.398 38.3345 223.383 39.7642ZM269.799 25.7273V32.6591H249.762V25.7273H269.799ZM254.311 17.7557H263.539V48.7756C263.539 49.6276 263.669 50.2919 263.929 50.7685C264.189 51.2306 264.55 51.5555 265.012 51.7433C265.489 51.931 266.037 52.0249 266.658 52.0249C267.092 52.0249 267.525 51.9888 267.958 51.9165C268.391 51.8299 268.723 51.7649 268.954 51.7216L270.406 58.5884C269.944 58.7328 269.294 58.8989 268.456 59.0866C267.619 59.2888 266.601 59.4116 265.402 59.4549C263.178 59.5415 261.228 59.2455 259.553 58.5668C257.892 57.888 256.6 56.8338 255.676 55.4041C254.751 53.9744 254.297 52.1693 254.311 49.9886V17.7557ZM285.298 59.6282C283.176 59.6282 281.284 59.2599 279.623 58.5234C277.962 57.7725 276.648 56.6677 275.68 55.2092C274.727 53.7362 274.251 51.9021 274.251 49.707C274.251 47.8585 274.59 46.3061 275.269 45.0497C275.948 43.7933 276.872 42.7824 278.042 42.017C279.211 41.2517 280.54 40.674 282.027 40.2841C283.529 39.8942 285.103 39.6198 286.75 39.4609C288.685 39.2588 290.245 39.071 291.429 38.8977C292.613 38.71 293.472 38.4356 294.006 38.0746C294.541 37.7135 294.808 37.1792 294.808 36.4716V36.3416C294.808 34.9697 294.375 33.9083 293.508 33.1573C292.656 32.4064 291.443 32.0309 289.869 32.0309C288.208 32.0309 286.887 32.3991 285.905 33.1357C284.923 33.8577 284.273 34.7675 283.955 35.8651L275.421 35.1719C275.854 33.1501 276.706 31.4027 277.977 29.9297C279.247 28.4422 280.887 27.3014 282.894 26.5071C284.916 25.6984 287.255 25.294 289.912 25.294C291.761 25.294 293.53 25.5107 295.22 25.9439C296.924 26.3771 298.433 27.0486 299.747 27.9584C301.075 28.8683 302.122 30.038 302.888 31.4677C303.653 32.8829 304.036 34.5798 304.036 36.5582V59H295.285V54.386H295.025C294.49 55.4258 293.775 56.3428 292.88 57.1371C291.985 57.9169 290.909 58.5307 289.652 58.9783C288.396 59.4116 286.945 59.6282 285.298 59.6282ZM287.941 53.2596C289.299 53.2596 290.497 52.9924 291.537 52.4581C292.577 51.9093 293.393 51.1728 293.985 50.2486C294.577 49.3243 294.873 48.2773 294.873 47.1076V43.5767C294.584 43.7644 294.187 43.9377 293.682 44.0966C293.191 44.241 292.635 44.3782 292.014 44.5082C291.393 44.6237 290.772 44.732 290.151 44.8331C289.53 44.9197 288.966 44.9992 288.461 45.0714C287.378 45.2302 286.432 45.483 285.623 45.8295C284.815 46.1761 284.186 46.6455 283.739 47.2376C283.291 47.8152 283.067 48.5373 283.067 49.4038C283.067 50.6602 283.522 51.6205 284.432 52.2848C285.356 52.9347 286.526 53.2596 287.941 53.2596ZM326.229 59.6499C322.82 59.6499 319.889 58.9278 317.434 57.4837C314.993 56.0251 313.116 54.0033 311.802 51.4183C310.502 48.8333 309.852 45.8584 309.852 42.4936C309.852 39.0855 310.509 36.0961 311.823 33.5256C313.152 30.9406 315.037 28.926 317.477 27.4819C319.918 26.0233 322.82 25.294 326.185 25.294C329.088 25.294 331.63 25.8211 333.81 26.8754C335.991 27.9296 337.717 29.4098 338.987 31.316C340.258 33.2223 340.959 35.4607 341.089 38.0312H332.381C332.135 36.3705 331.485 35.0347 330.431 34.0238C329.391 32.9985 328.027 32.4858 326.337 32.4858C324.907 32.4858 323.658 32.8757 322.589 33.6555C321.535 34.4209 320.712 35.5401 320.12 37.0131C319.528 38.4862 319.232 40.2696 319.232 42.3636C319.232 44.4865 319.521 46.2917 320.098 47.7791C320.69 49.2666 321.521 50.4002 322.589 51.18C323.658 51.9599 324.907 52.3498 326.337 52.3498C327.391 52.3498 328.337 52.1332 329.175 51.6999C330.027 51.2667 330.727 50.6385 331.276 49.8153C331.839 48.9777 332.207 47.9741 332.381 46.8043H341.089C340.944 49.346 340.251 51.5844 339.009 53.5195C337.782 55.4402 336.085 56.9421 333.919 58.0252C331.752 59.1083 329.189 59.6499 326.229 59.6499ZM364.695 25.7273V32.6591H344.657V25.7273H364.695ZM349.206 17.7557H358.434V48.7756C358.434 49.6276 358.564 50.2919 358.824 50.7685C359.084 51.2306 359.445 51.5555 359.907 51.7433C360.384 51.931 360.933 52.0249 361.554 52.0249C361.987 52.0249 362.42 51.9888 362.854 51.9165C363.287 51.8299 363.619 51.7649 363.85 51.7216L365.301 58.5884C364.839 58.7328 364.189 58.8989 363.352 59.0866C362.514 59.2888 361.496 59.4116 360.297 59.4549C358.073 59.5415 356.124 59.2455 354.449 58.5668C352.788 57.888 351.495 56.8338 350.571 55.4041C349.647 53.9744 349.192 52.1693 349.206 49.9886V17.7557Z" fill="white"/>
<path d="M2.80398 89.473V87.3636H17.5312V89.473H11.3565V107H8.97869V89.473H2.80398ZM23.2242 107.345C22.2909 107.345 21.444 107.169 20.6833 106.818C19.9227 106.46 19.3186 105.945 18.8712 105.274C18.4237 104.597 18.2 103.778 18.2 102.82C18.2 101.976 18.3662 101.292 18.6986 100.768C19.031 100.237 19.4752 99.8217 20.0313 99.5213C20.5874 99.2209 21.2011 98.9972 21.8722 98.8501C22.5498 98.6967 23.2306 98.5753 23.9145 98.4858C24.8094 98.3707 25.5349 98.2844 26.091 98.2269C26.6535 98.163 27.0626 98.0575 27.3183 97.9105C27.5803 97.7635 27.7114 97.5078 27.7114 97.1435V97.0668C27.7114 96.1207 27.4525 95.3857 26.9347 94.8615C26.4234 94.3374 25.6468 94.0753 24.6048 94.0753C23.5246 94.0753 22.6776 94.3118 22.064 94.7848C21.4504 95.2578 21.0189 95.7628 20.7696 96.2997L18.6219 95.5327C19.0054 94.6378 19.5168 93.9411 20.156 93.4425C20.8016 92.9375 21.5047 92.5859 22.2654 92.3878C23.0324 92.1832 23.7867 92.081 24.5281 92.081C25.0012 92.081 25.5445 92.1385 26.1581 92.2536C26.7781 92.3622 27.3758 92.5891 27.9511 92.9343C28.5328 93.2795 29.0154 93.8004 29.3989 94.4972C29.7824 95.1939 29.9742 96.1271 29.9742 97.2969V107H27.7114V105.006H27.5963C27.4429 105.325 27.1872 105.667 26.8293 106.032C26.4713 106.396 25.9951 106.706 25.4007 106.962C24.8062 107.217 24.0807 107.345 23.2242 107.345ZM23.5693 105.312C24.4642 105.312 25.2185 105.137 25.8321 104.785C26.4521 104.434 26.9188 103.98 27.232 103.424C27.5516 102.868 27.7114 102.283 27.7114 101.669V99.598C27.6155 99.7131 27.4046 99.8185 27.0786 99.9144C26.759 100.004 26.3882 100.084 25.9664 100.154C25.5509 100.218 25.145 100.276 24.7487 100.327C24.3588 100.371 24.0423 100.41 23.7995 100.442C23.2114 100.518 22.6617 100.643 22.1503 100.816C21.6453 100.982 21.2362 101.234 20.923 101.573C20.6162 101.906 20.4628 102.359 20.4628 102.935C20.4628 103.721 20.7536 104.315 21.3353 104.718C21.9234 105.114 22.6681 105.312 23.5693 105.312ZM44.536 95.571L42.5034 96.1463C42.3755 95.8075 42.187 95.4783 41.9377 95.1587C41.6948 94.8327 41.3624 94.5643 40.9405 94.3533C40.5186 94.1424 39.9785 94.0369 39.3201 94.0369C38.4189 94.0369 37.6678 94.2447 37.0669 94.6602C36.4725 95.0692 36.1752 95.5902 36.1752 96.223C36.1752 96.7855 36.3798 97.2298 36.7889 97.5558C37.198 97.8817 37.8372 98.1534 38.7065 98.3707L40.8926 98.9077C42.2093 99.2273 43.1905 99.7163 43.8361 100.375C44.4817 101.027 44.8045 101.867 44.8045 102.896C44.8045 103.74 44.5616 104.494 44.0758 105.159C43.5964 105.824 42.9252 106.348 42.0623 106.732C41.1994 107.115 40.1958 107.307 39.0517 107.307C37.5495 107.307 36.3063 106.981 35.3219 106.329C34.3375 105.677 33.7143 104.724 33.4522 103.472L35.6 102.935C35.8045 103.727 36.1912 104.322 36.7601 104.718C37.3354 105.114 38.0865 105.312 39.0133 105.312C40.068 105.312 40.9054 105.089 41.5254 104.641C42.1518 104.187 42.465 103.644 42.465 103.011C42.465 102.5 42.286 102.072 41.9281 101.727C41.5701 101.375 41.0204 101.113 40.2789 100.94L37.8244 100.365C36.4757 100.045 35.4849 99.5501 34.8521 98.8789C34.2257 98.2013 33.9125 97.3544 33.9125 96.3381C33.9125 95.5071 34.1458 94.772 34.6124 94.1328C35.0854 93.4936 35.7278 92.9918 36.5396 92.6275C37.3578 92.2631 38.2846 92.081 39.3201 92.081C40.7775 92.081 41.9217 92.4006 42.7527 93.0398C43.59 93.679 44.1845 94.5227 44.536 95.571ZM50.32 101.631L50.2817 98.831H50.7419L57.1851 92.2727H59.9848L53.1198 99.2145H52.928L50.32 101.631ZM48.2107 107V87.3636H50.4735V107H48.2107ZM57.5686 107L51.8158 99.7131L53.4266 98.1406L60.445 107H57.5686ZM73.329 95.571L71.2963 96.1463C71.1685 95.8075 70.9799 95.4783 70.7306 95.1587C70.4877 94.8327 70.1554 94.5643 69.7335 94.3533C69.3116 94.1424 68.7715 94.0369 68.1131 94.0369C67.2118 94.0369 66.4608 94.2447 65.8599 94.6602C65.2654 95.0692 64.9682 95.5902 64.9682 96.223C64.9682 96.7855 65.1728 97.2298 65.5819 97.5558C65.9909 97.8817 66.6301 98.1534 67.4995 98.3707L69.6855 98.9077C71.0023 99.2273 71.9835 99.7163 72.6291 100.375C73.2747 101.027 73.5975 101.867 73.5975 102.896C73.5975 103.74 73.3546 104.494 72.8688 105.159C72.3894 105.824 71.7182 106.348 70.8553 106.732C69.9924 107.115 68.9888 107.307 67.8446 107.307C66.3425 107.307 65.0993 106.981 64.1149 106.329C63.1305 105.677 62.5073 104.724 62.2452 103.472L64.3929 102.935C64.5975 103.727 64.9842 104.322 65.5531 104.718C66.1284 105.114 66.8794 105.312 67.8063 105.312C68.861 105.312 69.6983 105.089 70.3184 104.641C70.9448 104.187 71.258 103.644 71.258 103.011C71.258 102.5 71.079 102.072 70.7211 101.727C70.3631 101.375 69.8134 101.113 69.0719 100.94L66.6174 100.365C65.2686 100.045 64.2779 99.5501 63.6451 98.8789C63.0186 98.2013 62.7054 97.3544 62.7054 96.3381C62.7054 95.5071 62.9387 94.772 63.4054 94.1328C63.8784 93.4936 64.5208 92.9918 65.3326 92.6275C66.1507 92.2631 67.0776 92.081 68.1131 92.081C69.5705 92.081 70.7147 92.4006 71.5456 93.0398C72.383 93.679 72.9775 94.5227 73.329 95.571ZM88.9312 107.345C87.998 107.345 87.151 107.169 86.3904 106.818C85.6297 106.46 85.0257 105.945 84.5782 105.274C84.1308 104.597 83.907 103.778 83.907 102.82C83.907 101.976 84.0732 101.292 84.4056 100.768C84.738 100.237 85.1823 99.8217 85.7384 99.5213C86.2945 99.2209 86.9081 98.9972 87.5793 98.8501C88.2568 98.6967 88.9376 98.5753 89.6215 98.4858C90.5164 98.3707 91.2419 98.2844 91.798 98.2269C92.3605 98.163 92.7696 98.0575 93.0253 97.9105C93.2874 97.7635 93.4184 97.5078 93.4184 97.1435V97.0668C93.4184 96.1207 93.1595 95.3857 92.6418 94.8615C92.1304 94.3374 91.3538 94.0753 90.3119 94.0753C89.2316 94.0753 88.3847 94.3118 87.771 94.7848C87.1574 95.2578 86.7259 95.7628 86.4767 96.2997L84.3289 95.5327C84.7124 94.6378 85.2238 93.9411 85.863 93.4425C86.5086 92.9375 87.2117 92.5859 87.9724 92.3878C88.7394 92.1832 89.4937 92.081 90.2352 92.081C90.7082 92.081 91.2515 92.1385 91.8651 92.2536C92.4852 92.3622 93.0828 92.5891 93.6581 92.9343C94.2398 93.2795 94.7224 93.8004 95.1059 94.4972C95.4894 95.1939 95.6812 96.1271 95.6812 97.2969V107H93.4184V105.006H93.3034C93.1499 105.325 92.8943 105.667 92.5363 106.032C92.1784 106.396 91.7021 106.706 91.1077 106.962C90.5132 107.217 89.7877 107.345 88.9312 107.345ZM89.2764 105.312C90.1713 105.312 90.9255 105.137 91.5392 104.785C92.1592 104.434 92.6258 103.98 92.939 103.424C93.2586 102.868 93.4184 102.283 93.4184 101.669V99.598C93.3225 99.7131 93.1116 99.8185 92.7856 99.9144C92.466 100.004 92.0953 100.084 91.6734 100.154C91.2579 100.218 90.852 100.276 90.4557 100.327C90.0658 100.371 89.7494 100.41 89.5065 100.442C88.9184 100.518 88.3687 100.643 87.8573 100.816C87.3524 100.982 86.9433 101.234 86.6301 101.573C86.3232 101.906 86.1698 102.359 86.1698 102.935C86.1698 103.721 86.4607 104.315 87.0423 104.718C87.6304 105.114 88.3751 105.312 89.2764 105.312ZM99.8113 107V92.2727H101.997V94.4972H102.151C102.419 93.7685 102.905 93.1772 103.608 92.7234C104.311 92.2695 105.104 92.0426 105.986 92.0426C106.152 92.0426 106.36 92.0458 106.609 92.0522C106.858 92.0586 107.047 92.0682 107.175 92.081V94.3821C107.098 94.3629 106.922 94.3342 106.648 94.2958C106.379 94.2511 106.095 94.2287 105.794 94.2287C105.078 94.2287 104.439 94.3789 103.877 94.6793C103.32 94.9734 102.879 95.3825 102.553 95.9066C102.234 96.4244 102.074 97.0156 102.074 97.6804V107H99.8113ZM115.584 107.307C114.165 107.307 112.941 106.994 111.911 106.367C110.889 105.734 110.099 104.852 109.543 103.721C108.993 102.583 108.719 101.26 108.719 99.7514C108.719 98.2429 108.993 96.9134 109.543 95.7628C110.099 94.6058 110.873 93.7045 111.863 93.0589C112.861 92.407 114.024 92.081 115.354 92.081C116.121 92.081 116.878 92.2088 117.626 92.4645C118.374 92.7202 119.055 93.1357 119.668 93.7109C120.282 94.2798 120.771 95.0341 121.135 95.9737C121.499 96.9134 121.682 98.0703 121.682 99.4446V100.403H110.329V98.4474H119.381C119.381 97.6165 119.214 96.875 118.882 96.223C118.556 95.571 118.089 95.0565 117.482 94.6793C116.881 94.3022 116.172 94.1136 115.354 94.1136C114.452 94.1136 113.672 94.3374 113.014 94.7848C112.362 95.2259 111.86 95.8011 111.509 96.5107C111.157 97.2202 110.981 97.9808 110.981 98.7926V100.097C110.981 101.209 111.173 102.152 111.557 102.925C111.947 103.692 112.487 104.277 113.177 104.68C113.867 105.076 114.67 105.274 115.584 105.274C116.178 105.274 116.715 105.191 117.194 105.025C117.68 104.852 118.099 104.597 118.45 104.258C118.802 103.913 119.074 103.484 119.265 102.973L121.452 103.587C121.221 104.328 120.835 104.98 120.291 105.543C119.748 106.099 119.077 106.533 118.278 106.847C117.479 107.153 116.581 107.307 115.584 107.307ZM133.024 107V87.3636H135.287V94.6122H135.479C135.645 94.3565 135.875 94.0305 136.169 93.6342C136.47 93.2315 136.898 92.8736 137.454 92.5604C138.017 92.2408 138.777 92.081 139.736 92.081C140.976 92.081 142.069 92.391 143.015 93.011C143.961 93.631 144.699 94.5099 145.23 95.6477C145.76 96.7855 146.026 98.1278 146.026 99.6747C146.026 101.234 145.76 102.586 145.23 103.73C144.699 104.868 143.964 105.75 143.025 106.377C142.085 106.997 141.002 107.307 139.774 107.307C138.828 107.307 138.071 107.15 137.502 106.837C136.933 106.517 136.495 106.156 136.188 105.754C135.882 105.344 135.645 105.006 135.479 104.737H135.21V107H133.024ZM135.249 99.6364C135.249 100.749 135.412 101.73 135.738 102.58C136.064 103.424 136.54 104.085 137.166 104.565C137.793 105.038 138.56 105.274 139.468 105.274C140.414 105.274 141.203 105.025 141.836 104.526C142.475 104.021 142.954 103.344 143.274 102.494C143.6 101.637 143.763 100.685 143.763 99.6364C143.763 98.6009 143.603 97.6676 143.284 96.8366C142.97 95.9993 142.494 95.3377 141.855 94.8519C141.222 94.3597 140.426 94.1136 139.468 94.1136C138.547 94.1136 137.774 94.3469 137.147 94.8136C136.521 95.2738 136.048 95.9194 135.728 96.7504C135.409 97.5749 135.249 98.5369 135.249 99.6364ZM155.662 107.307C154.243 107.307 153.019 106.994 151.99 106.367C150.967 105.734 150.177 104.852 149.621 103.721C149.072 102.583 148.797 101.26 148.797 99.7514C148.797 98.2429 149.072 96.9134 149.621 95.7628C150.177 94.6058 150.951 93.7045 151.942 93.0589C152.939 92.407 154.102 92.081 155.432 92.081C156.199 92.081 156.956 92.2088 157.704 92.4645C158.452 92.7202 159.133 93.1357 159.746 93.7109C160.36 94.2798 160.849 95.0341 161.213 95.9737C161.578 96.9134 161.76 98.0703 161.76 99.4446V100.403H150.407V98.4474H159.459C159.459 97.6165 159.292 96.875 158.96 96.223C158.634 95.571 158.167 95.0565 157.56 94.6793C156.959 94.3022 156.25 94.1136 155.432 94.1136C154.53 94.1136 153.751 94.3374 153.092 94.7848C152.44 95.2259 151.938 95.8011 151.587 96.5107C151.235 97.2202 151.059 97.9808 151.059 98.7926V100.097C151.059 101.209 151.251 102.152 151.635 102.925C152.025 103.692 152.565 104.277 153.255 104.68C153.945 105.076 154.748 105.274 155.662 105.274C156.256 105.274 156.793 105.191 157.273 105.025C157.758 104.852 158.177 104.597 158.529 104.258C158.88 103.913 159.152 103.484 159.344 102.973L161.53 103.587C161.3 104.328 160.913 104.98 160.369 105.543C159.826 106.099 159.155 106.533 158.356 106.847C157.557 107.153 156.659 107.307 155.662 107.307ZM171.607 92.2727V94.1903H163.975V92.2727H171.607ZM166.199 88.7443H168.462V102.781C168.462 103.42 168.555 103.9 168.74 104.219C168.932 104.533 169.175 104.744 169.469 104.852C169.769 104.955 170.085 105.006 170.418 105.006C170.667 105.006 170.872 104.993 171.031 104.967C171.191 104.935 171.319 104.91 171.415 104.891L171.875 106.923C171.722 106.981 171.508 107.038 171.233 107.096C170.958 107.16 170.61 107.192 170.188 107.192C169.548 107.192 168.922 107.054 168.308 106.779C167.701 106.505 167.196 106.086 166.794 105.523C166.397 104.961 166.199 104.251 166.199 103.395V88.7443ZM181.415 92.2727V94.1903H173.783V92.2727H181.415ZM176.008 88.7443H178.27V102.781C178.27 103.42 178.363 103.9 178.548 104.219C178.74 104.533 178.983 104.744 179.277 104.852C179.578 104.955 179.894 105.006 180.226 105.006C180.476 105.006 180.68 104.993 180.84 104.967C181 104.935 181.128 104.91 181.224 104.891L181.684 106.923C181.53 106.981 181.316 107.038 181.041 107.096C180.767 107.16 180.418 107.192 179.996 107.192C179.357 107.192 178.731 107.054 178.117 106.779C177.51 106.505 177.005 106.086 176.602 105.523C176.206 104.961 176.008 104.251 176.008 103.395V88.7443ZM190.836 107.307C189.417 107.307 188.192 106.994 187.163 106.367C186.141 105.734 185.351 104.852 184.795 103.721C184.245 102.583 183.971 101.26 183.971 99.7514C183.971 98.2429 184.245 96.9134 184.795 95.7628C185.351 94.6058 186.125 93.7045 187.115 93.0589C188.113 92.407 189.276 92.081 190.605 92.081C191.373 92.081 192.13 92.2088 192.878 92.4645C193.626 92.7202 194.306 93.1357 194.92 93.7109C195.534 94.2798 196.023 95.0341 196.387 95.9737C196.751 96.9134 196.934 98.0703 196.934 99.4446V100.403H185.581V98.4474H194.632C194.632 97.6165 194.466 96.875 194.134 96.223C193.808 95.571 193.341 95.0565 192.734 94.6793C192.133 94.3022 191.424 94.1136 190.605 94.1136C189.704 94.1136 188.924 94.3374 188.266 94.7848C187.614 95.2259 187.112 95.8011 186.761 96.5107C186.409 97.2202 186.233 97.9808 186.233 98.7926V100.097C186.233 101.209 186.425 102.152 186.809 102.925C187.199 103.692 187.739 104.277 188.429 104.68C189.119 105.076 189.922 105.274 190.836 105.274C191.43 105.274 191.967 105.191 192.446 105.025C192.932 104.852 193.351 104.597 193.702 104.258C194.054 103.913 194.326 103.484 194.517 102.973L196.703 103.587C196.473 104.328 196.087 104.98 195.543 105.543C195 106.099 194.329 106.533 193.53 106.847C192.731 107.153 191.833 107.307 190.836 107.307ZM200.376 107V92.2727H202.562V94.4972H202.715C202.984 93.7685 203.469 93.1772 204.173 92.7234C204.876 92.2695 205.668 92.0426 206.55 92.0426C206.717 92.0426 206.924 92.0458 207.174 92.0522C207.423 92.0586 207.612 92.0682 207.739 92.081V94.3821C207.663 94.3629 207.487 94.3342 207.212 94.2958C206.944 94.2511 206.659 94.2287 206.359 94.2287C205.643 94.2287 205.004 94.3789 204.441 94.6793C203.885 94.9734 203.444 95.3825 203.118 95.9066C202.798 96.4244 202.638 97.0156 202.638 97.6804V107H200.376ZM221.352 107L216.865 92.2727H219.243L222.426 103.548H222.579L225.724 92.2727H228.14L231.247 103.51H231.4L234.584 92.2727H236.961L232.474 107H230.25L227.028 95.6861H226.798L223.576 107H221.352ZM239.953 107V92.2727H242.216V107H239.953ZM241.103 89.8182C240.662 89.8182 240.282 89.668 239.962 89.3675C239.649 89.0671 239.493 88.706 239.493 88.2841C239.493 87.8622 239.649 87.5011 239.962 87.2006C240.282 86.9002 240.662 86.75 241.103 86.75C241.544 86.75 241.922 86.9002 242.235 87.2006C242.554 87.5011 242.714 87.8622 242.714 88.2841C242.714 88.706 242.554 89.0671 242.235 89.3675C241.922 89.668 241.544 89.8182 241.103 89.8182ZM252.765 92.2727V94.1903H245.133V92.2727H252.765ZM247.357 88.7443H249.62V102.781C249.62 103.42 249.713 103.9 249.898 104.219C250.09 104.533 250.333 104.744 250.627 104.852C250.927 104.955 251.244 105.006 251.576 105.006C251.825 105.006 252.03 104.993 252.19 104.967C252.349 104.935 252.477 104.91 252.573 104.891L253.033 106.923C252.88 106.981 252.666 107.038 252.391 107.096C252.116 107.16 251.768 107.192 251.346 107.192C250.707 107.192 250.08 107.054 249.467 106.779C248.859 106.505 248.354 106.086 247.952 105.523C247.555 104.961 247.357 104.251 247.357 103.395V88.7443ZM258.748 98.1406V107H256.485V87.3636H258.748V94.5739H258.94C259.285 93.8132 259.803 93.2092 260.493 92.7617C261.19 92.3079 262.116 92.081 263.273 92.081C264.277 92.081 265.156 92.2823 265.91 92.685C266.664 93.0813 267.249 93.6918 267.665 94.5163C268.087 95.3345 268.298 96.3764 268.298 97.642V107H266.035V97.7955C266.035 96.6257 265.731 95.7212 265.124 95.082C264.523 94.4364 263.689 94.1136 262.621 94.1136C261.88 94.1136 261.215 94.2702 260.627 94.5835C260.045 94.8967 259.585 95.3537 259.246 95.9545C258.914 96.5554 258.748 97.2841 258.748 98.1406ZM284.365 107.345C283.432 107.345 282.585 107.169 281.824 106.818C281.063 106.46 280.459 105.945 280.012 105.274C279.564 104.597 279.341 103.778 279.341 102.82C279.341 101.976 279.507 101.292 279.839 100.768C280.172 100.237 280.616 99.8217 281.172 99.5213C281.728 99.2209 282.342 98.9972 283.013 98.8501C283.69 98.6967 284.371 98.5753 285.055 98.4858C285.95 98.3707 286.676 98.2844 287.232 98.2269C287.794 98.163 288.203 98.0575 288.459 97.9105C288.721 97.7635 288.852 97.5078 288.852 97.1435V97.0668C288.852 96.1207 288.593 95.3857 288.075 94.8615C287.564 94.3374 286.787 94.0753 285.745 94.0753C284.665 94.0753 283.818 94.3118 283.205 94.7848C282.591 95.2578 282.16 95.7628 281.91 96.2997L279.763 95.5327C280.146 94.6378 280.657 93.9411 281.297 93.4425C281.942 92.9375 282.645 92.5859 283.406 92.3878C284.173 92.1832 284.927 92.081 285.669 92.081C286.142 92.081 286.685 92.1385 287.299 92.2536C287.919 92.3622 288.516 92.5891 289.092 92.9343C289.673 93.2795 290.156 93.8004 290.54 94.4972C290.923 95.1939 291.115 96.1271 291.115 97.2969V107H288.852V105.006H288.737C288.584 105.325 288.328 105.667 287.97 106.032C287.612 106.396 287.136 106.706 286.541 106.962C285.947 107.217 285.221 107.345 284.365 107.345ZM284.71 105.312C285.605 105.312 286.359 105.137 286.973 104.785C287.593 104.434 288.059 103.98 288.373 103.424C288.692 102.868 288.852 102.283 288.852 101.669V99.598C288.756 99.7131 288.545 99.8185 288.219 99.9144C287.9 100.004 287.529 100.084 287.107 100.154C286.691 100.218 286.286 100.276 285.889 100.327C285.499 100.371 285.183 100.41 284.94 100.442C284.352 100.518 283.802 100.643 283.291 100.816C282.786 100.982 282.377 101.234 282.064 101.573C281.757 101.906 281.603 102.359 281.603 102.935C281.603 103.721 281.894 104.315 282.476 104.718C283.064 105.114 283.809 105.312 284.71 105.312ZM309.243 92.2727V94.1903H301.611V92.2727H309.243ZM303.836 88.7443H306.099V102.781C306.099 103.42 306.191 103.9 306.377 104.219C306.568 104.533 306.811 104.744 307.105 104.852C307.406 104.955 307.722 105.006 308.055 105.006C308.304 105.006 308.508 104.993 308.668 104.967C308.828 104.935 308.956 104.91 309.052 104.891L309.512 106.923C309.358 106.981 309.144 107.038 308.869 107.096C308.595 107.16 308.246 107.192 307.824 107.192C307.185 107.192 306.559 107.054 305.945 106.779C305.338 106.505 304.833 106.086 304.43 105.523C304.034 104.961 303.836 104.251 303.836 103.395V88.7443ZM318.664 107.307C317.245 107.307 316.021 106.994 314.991 106.367C313.969 105.734 313.179 104.852 312.623 103.721C312.074 102.583 311.799 101.26 311.799 99.7514C311.799 98.2429 312.074 96.9134 312.623 95.7628C313.179 94.6058 313.953 93.7045 314.944 93.0589C315.941 92.407 317.104 92.081 318.434 92.081C319.201 92.081 319.958 92.2088 320.706 92.4645C321.454 92.7202 322.135 93.1357 322.748 93.7109C323.362 94.2798 323.851 95.0341 324.215 95.9737C324.58 96.9134 324.762 98.0703 324.762 99.4446V100.403H313.409V98.4474H322.461C322.461 97.6165 322.294 96.875 321.962 96.223C321.636 95.571 321.169 95.0565 320.562 94.6793C319.961 94.3022 319.252 94.1136 318.434 94.1136C317.532 94.1136 316.752 94.3374 316.094 94.7848C315.442 95.2259 314.94 95.8011 314.589 96.5107C314.237 97.2202 314.061 97.9808 314.061 98.7926V100.097C314.061 101.209 314.253 102.152 314.637 102.925C315.027 103.692 315.567 104.277 316.257 104.68C316.947 105.076 317.75 105.274 318.664 105.274C319.258 105.274 319.795 105.191 320.275 105.025C320.76 104.852 321.179 104.597 321.531 104.258C321.882 103.913 322.154 103.484 322.346 102.973L324.532 103.587C324.301 104.328 323.915 104.98 323.371 105.543C322.828 106.099 322.157 106.533 321.358 106.847C320.559 107.153 319.661 107.307 318.664 107.307ZM332.538 107.345C331.604 107.345 330.757 107.169 329.997 106.818C329.236 106.46 328.632 105.945 328.185 105.274C327.737 104.597 327.513 103.778 327.513 102.82C327.513 101.976 327.68 101.292 328.012 100.768C328.344 100.237 328.789 99.8217 329.345 99.5213C329.901 99.2209 330.515 98.9972 331.186 98.8501C331.863 98.6967 332.544 98.5753 333.228 98.4858C334.123 98.3707 334.848 98.2844 335.404 98.2269C335.967 98.163 336.376 98.0575 336.632 97.9105C336.894 97.7635 337.025 97.5078 337.025 97.1435V97.0668C337.025 96.1207 336.766 95.3857 336.248 94.8615C335.737 94.3374 334.96 94.0753 333.918 94.0753C332.838 94.0753 331.991 94.3118 331.377 94.7848C330.764 95.2578 330.332 95.7628 330.083 96.2997L327.935 95.5327C328.319 94.6378 328.83 93.9411 329.469 93.4425C330.115 92.9375 330.818 92.5859 331.579 92.3878C332.346 92.1832 333.1 92.081 333.842 92.081C334.315 92.081 334.858 92.1385 335.472 92.2536C336.092 92.3622 336.689 92.5891 337.265 92.9343C337.846 93.2795 338.329 93.8004 338.712 94.4972C339.096 95.1939 339.288 96.1271 339.288 97.2969V107H337.025V105.006H336.91C336.756 105.325 336.501 105.667 336.143 106.032C335.785 106.396 335.309 106.706 334.714 106.962C334.12 107.217 333.394 107.345 332.538 107.345ZM332.883 105.312C333.778 105.312 334.532 105.137 335.146 104.785C335.766 104.434 336.232 103.98 336.545 103.424C336.865 102.868 337.025 102.283 337.025 101.669V99.598C336.929 99.7131 336.718 99.8185 336.392 99.9144C336.072 100.004 335.702 100.084 335.28 100.154C334.864 100.218 334.458 100.276 334.062 100.327C333.672 100.371 333.356 100.41 333.113 100.442C332.525 100.518 331.975 100.643 331.464 100.816C330.959 100.982 330.55 101.234 330.237 101.573C329.93 101.906 329.776 102.359 329.776 102.935C329.776 103.721 330.067 104.315 330.649 104.718C331.237 105.114 331.982 105.312 332.883 105.312ZM343.418 107V92.2727H345.604V94.5739H345.796C346.102 93.7876 346.598 93.1772 347.282 92.7425C347.966 92.3015 348.787 92.081 349.746 92.081C350.717 92.081 351.526 92.3015 352.172 92.7425C352.824 93.1772 353.332 93.7876 353.696 94.5739H353.85C354.227 93.8132 354.792 93.2092 355.547 92.7617C356.301 92.3079 357.205 92.081 358.26 92.081C359.577 92.081 360.654 92.4933 361.491 93.3178C362.329 94.136 362.747 95.4112 362.747 97.1435V107H360.484V97.1435C360.484 96.0568 360.187 95.2802 359.593 94.8136C358.998 94.3469 358.298 94.1136 357.493 94.1136C356.457 94.1136 355.655 94.4268 355.086 95.0533C354.517 95.6733 354.233 96.4595 354.233 97.4119V107H351.932V96.9134C351.932 96.076 351.66 95.4016 351.117 94.8903C350.574 94.3725 349.874 94.1136 349.017 94.1136C348.429 94.1136 347.879 94.2702 347.368 94.5835C346.863 94.8967 346.454 95.3313 346.141 95.8874C345.834 96.4371 345.68 97.0732 345.68 97.7955V107H343.418ZM369.876 87.3636L369.684 101.477H367.46L367.268 87.3636H369.876ZM368.572 107.153C368.099 107.153 367.693 106.984 367.354 106.645C367.016 106.306 366.846 105.901 366.846 105.428C366.846 104.955 367.016 104.549 367.354 104.21C367.693 103.871 368.099 103.702 368.572 103.702C369.045 103.702 369.451 103.871 369.79 104.21C370.128 104.549 370.298 104.955 370.298 105.428C370.298 105.741 370.218 106.028 370.058 106.29C369.905 106.553 369.697 106.763 369.435 106.923C369.179 107.077 368.892 107.153 368.572 107.153Z" fill="white"/>
<path d="M91.5 129H1.5" stroke="#29ABE2" stroke-width="3" stroke-linecap="round"/>
</svg>
