<svg width="24" height="24" viewBox="0 0 24 24" fill="none" xmlns="http://www.w3.org/2000/svg">
<mask id="mask0_399063_1371" style="mask-type:alpha" maskUnits="userSpaceOnUse" x="0" y="0" width="24" height="24">
<rect width="24" height="24" fill="#D9D9D9"/>
</mask>
<g mask="url(#mask0_399063_1371)">
<mask id="mask1_399063_1371" style="mask-type:alpha" maskUnits="userSpaceOnUse" x="2" y="2" width="26" height="27">
<rect x="2" y="2.03418" width="26" height="26" fill="#D9D9D9"/>
</mask>
<g mask="url(#mask1_399063_1371)">
<path d="M12.8667 19.8273C12.6211 19.8273 12.4153 19.7442 12.2492 19.5781C12.0831 19.412 12 19.2062 12 18.9606C12 18.7151 12.0831 18.5092 12.2492 18.3431C12.4153 18.177 12.6211 18.094 12.8667 18.094H18.0667V5.96063H12.8667C12.6211 5.96063 12.4153 5.87757 12.2492 5.71146C12.0831 5.54535 12 5.33952 12 5.09396C12 4.84841 12.0831 4.64257 12.2492 4.47646C12.4153 4.31035 12.6211 4.22729 12.8667 4.22729H18.0667C18.5433 4.22729 18.9514 4.39702 19.2908 4.73646C19.6303 5.07591 19.8 5.48396 19.8 5.96063V18.094C19.8 18.5706 19.6303 18.9787 19.2908 19.3181C18.9514 19.6576 18.5433 19.8273 18.0667 19.8273H12.8667ZM11.285 12.894H5.06666C4.82111 12.894 4.61527 12.8109 4.44916 12.6448C4.28305 12.4787 4.2 12.2729 4.2 12.0273C4.2 11.7817 4.28305 11.5759 4.44916 11.4098C4.61527 11.2437 4.82111 11.1606 5.06666 11.1606H11.285L9.66 9.53563C9.50111 9.37674 9.42166 9.18174 9.42166 8.95063C9.42166 8.71952 9.50111 8.51729 9.66 8.34396C9.81889 8.17063 10.0211 8.08035 10.2667 8.07313C10.5122 8.06591 10.7217 8.14896 10.895 8.32229L13.9933 11.4206C14.1667 11.594 14.2533 11.7962 14.2533 12.0273C14.2533 12.2584 14.1667 12.4606 13.9933 12.634L10.895 15.7323C10.7217 15.9056 10.5158 15.9887 10.2775 15.9815C10.0392 15.9742 9.83333 15.884 9.66 15.7106C9.50111 15.5373 9.42527 15.3315 9.4325 15.0931C9.43972 14.8548 9.52277 14.6562 9.68166 14.4973L11.285 12.894Z" fill="#CDCDCD"/>
</g>
</g>
</svg>
